<svg id="Capa_1" enable-background="new 0 0 512 512" height="512" viewBox="0 0 512 512" width="512" xmlns="http://www.w3.org/2000/svg"><g><ellipse cx="256" cy="454.766" fill="#91deb6" rx="145.022" ry="57.231"/><path d="m401.025 454.766c0 31.605-64.935 57.234-145.025 57.234-48.444 0-91.344-9.375-117.681-23.781 25.865 9.467 60.499 15.248 98.542 15.248 80.09 0 145.025-25.629 145.025-57.234 0-12.486-10.135-24.037-27.323-33.443 28.575 10.443 46.462 25.393 46.462 41.976z" fill="#6ed5a1"/><path d="m441.432 185.432c0-102.411-83.021-185.432-185.432-185.432s-185.432 83.021-185.432 185.433c0 103.208 77.655 204.21 167.343 248.363 2.822 1.389 15.373 9.316 18.089 8.19 3.448-1.43 6.87-2.922 10.264-4.475 93.485-42.793 175.166-145.527 175.168-252.079z" fill="#fe93bb"/><path d="m441.43 185.437c0 106.551-81.682 209.282-175.162 252.079-3.399 1.55-6.818 3.039-10.268 4.466-2.721 1.13-15.269-6.797-18.092-8.184-.708-.349-1.417-.708-2.125-1.058.092-.021.174-.041.246-.072 3.45-1.427 6.869-2.926 10.268-4.477 93.48-42.797 175.162-145.528 175.172-252.079 0-70.49-39.326-131.789-97.248-163.158 68.651 27.171 117.209 94.159 117.209 172.483z" fill="#fe76a8"/><circle cx="256" cy="185.432" fill="#f9f3f1" r="134.376"/><path d="m390.377 185.437c0 74.207-60.16 134.367-134.377 134.367-36.287 0-69.216-14.386-93.398-37.766 21.049 13.698 46.185 21.655 73.18 21.655 74.217 0 134.377-60.17 134.377-134.377 0-37.91-15.7-72.153-40.949-96.57 36.822 23.955 61.167 65.479 61.167 112.691z" fill="#f3eae6"/><path d="m329.74 172.221c.9-17.467 1.263-34.962 1.082-52.451-.109-10.505-13.138-15.333-20.079-7.447-8.133 9.24-16.654 18.858-24.161 27.489-10.74-3.771-21.815-5.612-31.545-4.961-9.092-.36-19.296 1.484-29.259 5.032-7.522-8.649-16.068-18.295-24.223-27.56-6.941-7.886-19.97-3.057-20.079 7.447-.182 17.488.182 34.981 1.082 52.447-11.77 19.307-13.278 46.565.134 64.544 11.474 15.38 30.879 21.356 48.716 23.99 16.81 2.482 33.94 2.249 50.676-.69 17.759-3.119 36.995-9.621 48.046-25.308 12.472-17.706 10.804-43.679-.39-62.532z" fill="#fec165"/><path d="m330.135 234.754c-11.059 15.689-30.291 22.189-48.054 25.31-13.276 2.331-26.799 2.957-40.22 1.879 4.939-.39 9.868-1.027 14.755-1.879 17.753-3.122 36.995-9.621 48.044-25.31 12.465-17.702 10.802-43.68-.39-62.532.893-17.466 1.263-34.963 1.078-52.449 0-.421-.031-.842-.082-1.242 1.838-2.085 3.666-4.159 5.473-6.212 6.941-7.886 19.971-3.05 20.084 7.455.185 17.486-.185 34.983-1.078 52.449 11.192 18.851 12.855 44.829.39 62.531z" fill="#fdb441"/><g><g><path d="m240.138 208.42c-2.74 0-5.394-1.466-6.785-4.048-3.291-6.103-5.421-5.176-7.889-4.104-.346.15-.795.385-1.269.633-1.522.795-3.607 1.884-6.239 2.289-3.407.524-6.997-.446-9.606-2.596-2.355-1.939-3.718-4.638-3.837-7.6-.171-4.25 3.135-7.834 7.384-8.005 2.167-.079 4.106.707 5.556 2.057.564-.292 1.186-.605 1.875-.904 5.285-2.296 18.551-5.828 27.583 10.921 2.019 3.743.62 8.414-3.124 10.433-1.163.627-2.416.924-3.649.924z" fill="#fea613"/></g><g><path d="m271.862 208.42c-1.234 0-2.486-.297-3.648-.924-3.743-2.019-5.142-6.69-3.124-10.433 9.031-16.749 22.298-13.218 27.583-10.921.689.299 1.312.613 1.875.905 1.45-1.35 3.41-2.134 5.556-2.057 4.25.171 7.556 3.756 7.384 8.005-.119 2.962-1.482 5.66-3.837 7.6-2.608 2.149-6.197 3.12-9.604 2.596-2.634-.406-4.719-1.495-6.241-2.29-.474-.248-.924-.482-1.269-.633-2.465-1.071-4.599-1.998-7.889 4.104-1.392 2.581-4.045 4.048-6.786 4.048z" fill="#fea613"/></g></g></g></svg>